<?xml version="1.0" encoding="UTF-8" standalone="no"?>
<svg
   xmlns:dc="http://purl.org/dc/elements/1.1/"
   xmlns:cc="http://creativecommons.org/ns#"
   xmlns:rdf="http://www.w3.org/1999/02/22-rdf-syntax-ns#"
   xmlns:svg="http://www.w3.org/2000/svg"
   xmlns="http://www.w3.org/2000/svg"
   width="260mm"
   height="80mm"
   viewBox="0 0 260 80"
   version="1.1"
   id="svg8">
  <defs
     id="defs2" />
  <metadata
     id="metadata5">
    <rdf:RDF>
      <cc:Work
         rdf:about="">
        <dc:format>image/svg+xml</dc:format>
        <dc:type
           rdf:resource="http://purl.org/dc/dcmitype/StillImage" />
        <dc:title></dc:title>
      </cc:Work>
    </rdf:RDF>
  </metadata>
  <g
     id="layer1"
     transform="translate(0,-217)">
    <g
       id="g5120"
       transform="translate(-3.4076865,-23.920622)">
      <g
         transform="matrix(1.5212596,0,0,1.5212596,-69.540034,-146.43257)"
         id="g6072">
        <path
           id="path5126"
           d="m 107.38547,300.94494 c -3.24898,-0.41583 -6.2022,-1.62737 -7.798868,-3.19944 -1.70235,-1.67614 -2.37505,-3.25664 -2.50338,-5.88171 -0.20823,-4.25978 1.51114,-7.01769 5.286598,-8.4798 1.60703,-0.62236 2.89442,-0.85258 7.81602,-1.39778 2.53188,-0.28046 4.43464,-0.56034 4.54357,-0.6683 0.28411,-0.28154 -0.0434,-1.49696 -0.54652,-2.02803 -0.79217,-0.8362 -1.65944,-1.14663 -3.76369,-1.34712 -2.51862,-0.23997 -6.52258,0.32028 -8.85263,1.2387 -0.76323,0.30084 -0.86173,0.30795 -1.19948,0.0866 -0.550368,-0.36062 -1.254718,-1.71016 -1.453658,-2.78525 -0.73881,-3.99256 2.519468,-5.89251 10.494528,-6.11949 4.16216,-0.11846 6.88791,0.30196 9.38751,1.44792 2.43127,1.11463 3.97256,2.56934 4.93055,4.65358 0.92697,2.01676 0.9284,2.03371 0.9284,11.0459 0,8.21181 -0.002,8.24817 -0.3442,8.88908 -0.79491,1.48622 -3.24284,3.06578 -5.96017,3.84587 -2.70122,0.77547 -7.81889,1.10183 -10.96458,0.69922 z m 6.13527,-7.52951 c 0.55068,-0.1298 1.09325,-0.31236 1.20571,-0.40569 0.24281,-0.20152 0.29815,-4.56703 0.0598,-4.71437 -0.20254,-0.12517 -5.08799,0.33195 -5.84498,0.5469 -1.39729,0.39677 -2.10028,1.14879 -2.10028,2.24675 0,1.01829 0.72301,1.95135 1.81327,2.34008 0.8165,0.29112 3.60668,0.28328 4.86652,-0.0137 z m 61.54361,7.54489 c -4.80797,-0.75204 -8.5851,-2.89523 -10.81534,-6.1368 -0.74649,-1.08497 -1.83216,-3.45685 -2.20786,-4.82353 -0.30439,-1.10728 -0.34214,-1.62227 -0.34214,-4.66728 0,-3.05176 0.0373,-3.55756 0.34379,-4.66729 1.17035,-4.23706 4.20398,-7.74599 7.92106,-9.16212 2.46357,-0.93856 3.32134,-1.08268 6.49741,-1.09166 2.61833,-0.007 3.10698,0.0327 4.27834,0.35082 3.9623,1.07623 7.06123,3.4491 8.61559,6.59702 0.79529,1.61062 1.13561,2.86266 1.28341,4.72155 0.18022,2.26684 -0.43551,3.67178 -2.00129,4.56651 -1.03239,0.58993 -0.96549,0.57684 -9.50792,1.86049 -3.92323,0.58954 -7.20609,1.14482 -7.29522,1.23396 -0.21905,0.21905 0.66031,1.58069 1.3708,2.12262 2.82736,2.15652 8.56019,2.19014 13.03438,0.0764 0.97032,-0.4584 1.37318,-0.32682 2.16063,0.70571 1.7652,2.31456 1.18151,5.20686 -1.35018,6.69054 -0.94343,0.55288 -2.64136,1.11764 -4.23844,1.40976 -1.61368,0.29516 -6.38386,0.42647 -7.74702,0.21326 z m 1.16355,-18.91423 c 2.43866,-0.39915 4.53053,-0.81468 4.64862,-0.9234 0.56379,-0.51909 -1.34351,-2.82335 -2.64666,-3.1975 -0.93911,-0.26963 -3.01946,-0.23161 -3.83169,0.07 -1.65195,0.61349 -2.76538,1.85846 -3.21874,3.599 -0.13262,0.50914 -0.24112,0.98101 -0.24112,1.0486 0,0.22671 0.83255,0.13279 5.28959,-0.59672 z M 53.983463,300.43147 c -1.36718,-0.31185 -2.16977,-0.8067 -2.65954,-1.63976 -0.39387,-0.66994 -0.41143,-0.79347 -0.38724,-2.72425 0.0139,-1.11237 0.37984,-8.28832 0.81311,-15.94655 l 0.78778,-13.92407 0.65728,-0.57572 c 1.56013,-1.36657 3.09341,-1.83131 6.03981,-1.8307 3.254319,6.2e-4 4.958029,0.55683 6.309089,2.05953 0.37276,0.4146 0.84922,1.11732 1.05879,1.5616 0.48737,1.03318 3.65957,10.5122 4.30531,12.86493 0.27009,0.98402 0.55112,1.85229 0.62453,1.92948 0.1989,0.20914 0.32434,-0.15411 1.92891,-5.58552 1.76064,-5.95972 3.54865,-11.35997 3.8839,-11.73043 0.95535,-1.05565 6.60561,-1.46424 9.12189,-0.65963 2.42215,0.77451 3.10183,1.70351 3.48753,4.76683 0.6577,5.22377 2.26094,23.35432 2.51393,28.42936 l 0.10653,2.137 -0.84034,0.38205 c -1.19077,0.54139 -2.70977,0.76438 -4.55549,0.66875 -2.61605,-0.13554 -3.94177,-0.72093 -4.58937,-2.02649 -0.46274,-0.93289 -0.55875,-2.18719 -0.80023,-10.4548 -0.27446,-9.39641 -0.36761,-11.32609 -0.54969,-11.38632 -0.0904,-0.0299 -0.25815,0.31451 -0.37283,0.76533 -0.11469,0.45083 -0.7128,2.4299 -1.32913,4.39794 -0.61634,1.96804 -1.49479,4.83842 -1.95212,6.37862 -0.45732,1.54021 -0.94042,2.93034 -1.07356,3.08919 -1.2432,1.4833 -6.62951,1.81106 -8.88941,0.54093 -0.34364,-0.19314 -0.76123,-0.57191 -0.92798,-0.84171 -0.28912,-0.46781 -3.62356,-10.59775 -4.34895,-13.21201 -0.18995,-0.68453 -0.38835,-1.31461 -0.44089,-1.40018 -0.21399,-0.34844 -0.31877,1.4248 -0.48264,8.16774 -0.23412,9.6334 -0.45793,15.13461 -0.62243,15.29911 -0.5519,0.55189 -5.119779,0.88679 -6.816549,0.49975 z m 80.045957,0.008 c -1.0659,-0.22902 -1.90276,-0.84968 -2.45186,-1.81844 l -0.38894,-0.68619 -0.0414,-18.31108 -0.0414,-18.31109 0.5859,-0.16364 c 1.28873,-0.35993 4.00326,-0.53501 5.47863,-0.35335 1.62627,0.20023 2.457,0.58421 3.16213,1.46158 0.84039,1.04566 0.88568,1.58166 0.88836,10.51315 0.002,4.75753 0.0609,8.12885 0.14352,8.12885 0.0776,0 2.37734,-2.2753 5.11053,-5.05623 l 4.96943,-5.05622 0.76246,0.002 c 0.41937,10e-4 1.20138,0.10578 1.73782,0.23226 2.92104,0.68869 4.54825,2.55056 4.35318,4.98089 -0.14788,1.84222 -1.06425,2.95252 -5.82302,7.05534 -1.29876,1.11975 -2.41048,2.11534 -2.47048,2.21242 -0.0656,0.10621 1.75773,2.04406 4.57837,4.86584 5.18977,5.19187 4.89803,4.7633 4.44153,6.52502 -0.31665,1.22201 -0.56901,1.69684 -1.35495,2.54948 -1.10026,1.19365 -1.59377,1.36928 -3.84757,1.36928 -1.88104,0 -1.98306,-0.0173 -2.9692,-0.50274 -1.35805,-0.66858 -2.99852,-2.3921 -6.51767,-6.84766 -1.49742,-1.89586 -2.8101,-3.45043 -2.91705,-3.45458 -0.1518,-0.006 -0.19447,1.1197 -0.19447,5.1303 v 5.13786 l -0.35005,0.13212 c -1.20309,0.45405 -5.23623,0.60994 -6.84381,0.26453 z m 64.8975,0.0715 c -1.92005,-0.35472 -2.91333,-1.41152 -3.24441,-3.45193 -0.20395,-1.25696 -0.21734,-18.69623 -0.0153,-19.92978 0.20174,-1.23167 0.56515,-1.93184 1.48014,-2.85179 1.06215,-1.06789 2.42241,-1.79378 4.91292,-2.62171 2.4098,-0.80111 4.20217,-1.15284 6.55719,-1.28677 3.85774,-0.21938 6.35636,0.82171 7.06059,2.94193 0.34589,1.04139 0.24684,3.02826 -0.20096,4.03129 l -0.32204,0.72133 -1.30007,0.10428 c -3.04259,0.24404 -6.62171,0.91512 -7.63867,1.43222 l -0.42669,0.21698 -0.04,10.14793 -0.04,10.14793 -0.77788,0.20004 c -0.95287,0.24505 -5.02364,0.37931 -6.00477,0.19805 z"
           style="fill:#2f4054;fill-opacity:1;stroke-width:0.15557611" />
        <g
           transform="translate(-55.924657,60.084231)"
           id="g5132">
          <path
             style="opacity:1;fill:#2eb0ff;fill-opacity:1;stroke-width:0.15557611"
             d="m 189.95408,240.35477 c -1.0659,-0.22902 -1.90276,-0.84968 -2.45186,-1.81844 l -0.38894,-0.68619 -0.0456,-6.28367 -0.0456,-6.28367 c 2.71078,-2.96933 5.60917,-3.72851 8.25893,-3.76253 4.14639,0.0378 8.09854,1.6563 10.58279,3.65042 l 4.58496,4.68703 c 5.30747,5.42564 4.96075,4.94064 4.50008,6.71846 -0.31665,1.222 -0.56901,1.69683 -1.35495,2.54948 -1.10026,1.19365 -1.59377,1.36928 -3.84757,1.36928 -1.88104,0 -1.98306,-0.0173 -2.9692,-0.50275 -1.35805,-0.66857 -2.99852,-2.39209 -6.51767,-6.84765 -1.49742,-1.89587 -2.8101,-3.45043 -2.91705,-3.45459 -0.1518,-0.006 -0.19447,1.11971 -0.19447,5.13031 v 5.13786 l -0.35005,0.13211 c -1.20309,0.45405 -5.23623,0.60995 -6.84381,0.26454 z m -64.7995,-7.95249 c -1.32067,-0.28688 -2.17245,-0.79534 -2.59896,-1.55139 -0.285,-0.5052 -2.65291,-7.71765 -4.46979,-13.61458 -0.40051,-0.87646 -0.0992,-0.0661 -0.39701,-1.28144 -2.04754,-5.5756 -9.70571,-1.97835 -9.34871,-7.91952 l 0.12212,-1.92274 0.65952,-0.57567 c 1.55335,-1.36522 3.09052,-1.83131 6.0376,-1.8307 3.25432,6.2e-4 4.95803,0.55683 6.30909,2.05953 0.37276,0.4146 0.84922,1.11732 1.05879,1.5616 0.48737,1.03318 3.65957,10.5122 4.30531,12.86493 0.27009,0.98402 0.55112,1.85229 0.62453,1.92948 0.1989,0.20914 0.32434,-0.15411 1.92891,-5.58552 1.76064,-5.95972 3.54865,-11.35997 3.8839,-11.73043 0.55971,-0.61847 3.01125,-1.1046 5.5705,-1.1046 1.47009,0 4.45352,0.20158 5.82043,1.62526 0.73904,0.87514 0.9161,1.67724 0.98118,2.37676 1.0067,7.69378 -6.75964,3.06616 -8.62601,9.05726 -0.15318,0.55618 -0.96196,3.17898 -1.43349,4.6764 -0.47152,1.49742 -1.32609,4.27495 -1.89906,6.17228 -0.57296,1.89733 -1.13758,3.56517 -1.25471,3.7063 -0.90643,1.09218 -4.66458,1.65369 -7.27411,1.08684 z"
             id="path5124" />
        </g>
      </g>
    </g>
  </g>
</svg>
