<?xml version="1.0" encoding="UTF-8" standalone="no"?>
<!-- Created with Inkscape (http://www.inkscape.org/) -->

<svg
   xmlns:dc="http://purl.org/dc/elements/1.1/"
   xmlns:cc="http://creativecommons.org/ns#"
   xmlns:rdf="http://www.w3.org/1999/02/22-rdf-syntax-ns#"
   xmlns:svg="http://www.w3.org/2000/svg"
   xmlns="http://www.w3.org/2000/svg"
   xmlns:xlink="http://www.w3.org/1999/xlink"
   xmlns:sodipodi="http://sodipodi.sourceforge.net/DTD/sodipodi-0.dtd"
   xmlns:inkscape="http://www.inkscape.org/namespaces/inkscape"
   width="370mm"
   height="210mm"
   viewBox="0 0 370 210"
   version="1.1"
   id="svg8"
   inkscape:version="0.92.3 (2405546, 2018-03-11)"
   sodipodi:docname="asdf.svg">
  <defs
     id="defs2">
    <linearGradient
       inkscape:collect="always"
       id="linearGradient885">
      <stop
         style="stop-color:#ffffff;stop-opacity:0"
         offset="0"
         id="stop881" />
      <stop
         style="stop-color:#ffffff;stop-opacity:1"
         offset="1"
         id="stop883" />
    </linearGradient>
    <linearGradient
       inkscape:collect="always"
       id="linearGradient872">
      <stop
         style="stop-color:#008aff;stop-opacity:0.65882355"
         offset="0"
         id="stop868" />
      <stop
         style="stop-color:#2e8eff;stop-opacity:0.52156866"
         offset="1"
         id="stop870" />
    </linearGradient>
    <linearGradient
       id="linearGradient994"
       inkscape:collect="always">
      <stop
         id="stop990"
         offset="0"
         style="stop-color:#2edbf4;stop-opacity:1" />
      <stop
         id="stop992"
         offset="1"
         style="stop-color:#2e8bff;stop-opacity:0.81395346" />
    </linearGradient>
    <linearGradient
       inkscape:collect="always"
       id="linearGradient1045">
      <stop
         style="stop-color:#2e8bff;stop-opacity:1;"
         offset="0"
         id="stop1041" />
      <stop
         style="stop-color:#2e8bff;stop-opacity:0;"
         offset="1"
         id="stop1043" />
    </linearGradient>
    <filter
       style="color-interpolation-filters:sRGB"
       inkscape:label="Drop Shadow"
       id="filter1035">
      <feFlood
         flood-opacity="0.2"
         flood-color="rgb(0,0,0)"
         result="flood"
         id="feFlood1025" />
      <feComposite
         in="flood"
         in2="SourceGraphic"
         operator="in"
         result="composite1"
         id="feComposite1027" />
      <feGaussianBlur
         in="composite1"
         stdDeviation="1.52708"
         result="blur"
         id="feGaussianBlur1029" />
      <feOffset
         dx="0"
         dy="0"
         result="offset"
         id="feOffset1031" />
      <feComposite
         in="SourceGraphic"
         in2="offset"
         operator="over"
         result="composite2"
         id="feComposite1033" />
    </filter>
    <linearGradient
       inkscape:collect="always"
       xlink:href="#linearGradient1045"
       id="linearGradient1047"
       x1="248.56065"
       y1="216.41824"
       x2="362.952"
       y2="102.29416"
       gradientUnits="userSpaceOnUse"
       gradientTransform="matrix(1.3639244,0,0,1.3049819,-126.37863,-32.027172)" />
    <linearGradient
       inkscape:collect="always"
       xlink:href="#linearGradient1045"
       id="linearGradient898"
       x1="-239.23305"
       y1="-3.2845085"
       x2="264.69214"
       y2="-3.2845085"
       gradientUnits="userSpaceOnUse" />
    <linearGradient
       inkscape:collect="always"
       xlink:href="#linearGradient1045"
       id="linearGradient900"
       gradientUnits="userSpaceOnUse"
       x1="-239.23305"
       y1="-3.2845085"
       x2="264.69214"
       y2="-3.2845085" />
    <linearGradient
       inkscape:collect="always"
       xlink:href="#linearGradient994"
       id="linearGradient996"
       gradientUnits="userSpaceOnUse"
       x1="175.91673"
       y1="-8.8602943"
       x2="-366.71838"
       y2="3.2036805" />
    <linearGradient
       inkscape:collect="always"
       xlink:href="#linearGradient994"
       id="linearGradient1000"
       gradientUnits="userSpaceOnUse"
       x1="175.91673"
       y1="-8.8602943"
       x2="-366.71838"
       y2="3.2036805"
       gradientTransform="translate(3.1290706,10.207979)" />
    <filter
       style="color-interpolation-filters:sRGB;"
       inkscape:label="Drop Shadow"
       id="filter877">
      <feFlood
         flood-opacity="0.203922"
         flood-color="rgb(0,0,0)"
         result="flood"
         id="feFlood867" />
      <feComposite
         in="flood"
         in2="SourceGraphic"
         operator="in"
         result="composite1"
         id="feComposite869" />
      <feGaussianBlur
         in="composite1"
         stdDeviation="1.5"
         result="blur"
         id="feGaussianBlur871" />
      <feOffset
         dx="0"
         dy="0"
         result="offset"
         id="feOffset873" />
      <feComposite
         in="SourceGraphic"
         in2="offset"
         operator="over"
         result="composite2"
         id="feComposite875" />
    </filter>
    <linearGradient
       inkscape:collect="always"
       xlink:href="#linearGradient872"
       id="linearGradient874"
       gradientUnits="userSpaceOnUse"
       x1="-286.51251"
       y1="-13.941233"
       x2="343.94308"
       y2="-11.54202" />
    <linearGradient
       inkscape:collect="always"
       xlink:href="#linearGradient872"
       id="linearGradient876"
       gradientUnits="userSpaceOnUse"
       x1="-286.51251"
       y1="-13.941233"
       x2="343.94308"
       y2="-11.54202"
       gradientTransform="translate(-4.8338208,-58.018613)" />
    <linearGradient
       inkscape:collect="always"
       xlink:href="#linearGradient885"
       id="linearGradient887"
       x1="153.4532"
       y1="268.4523"
       x2="198.34596"
       y2="266.3317"
       gradientUnits="userSpaceOnUse"
       gradientTransform="matrix(0.7478534,0,0,0.92600044,-8.6758998,-165.55606)" />
  </defs>
  <sodipodi:namedview
     id="base"
     pagecolor="#ffffff"
     bordercolor="#666666"
     borderopacity="1.0"
     inkscape:pageopacity="0.0"
     inkscape:pageshadow="2"
     inkscape:zoom="0.98994948"
     inkscape:cx="364.12227"
     inkscape:cy="411.29709"
     inkscape:document-units="mm"
     inkscape:current-layer="layer1"
     showgrid="false"
     inkscape:window-width="2560"
     inkscape:window-height="1387"
     inkscape:window-x="-8"
     inkscape:window-y="-8"
     inkscape:window-maximized="1" />
  <metadata
     id="metadata5">
    <rdf:RDF>
      <cc:Work
         rdf:about="">
        <dc:format>image/svg+xml</dc:format>
        <dc:type
           rdf:resource="http://purl.org/dc/dcmitype/StillImage" />
        <dc:title />
      </cc:Work>
    </rdf:RDF>
  </metadata>
  <g
     inkscape:label="Layer 1"
     inkscape:groupmode="layer"
     id="layer1"
     transform="translate(0,-87)">
    <g
       id="g960"
       transform="matrix(0.24594778,-0.40194838,0.43556395,0.22696624,-3.1964756,127.35728)"
       style="opacity:0.31100003;fill:url(#linearGradient874);fill-opacity:1">
      <path
         id="path958"
         d="m 149.36618,-252.41861 c 33.3,38.6 39.5,98.9 45.5,155.799997 6,56.9 11.9,110.5 -7.7,154.3 -19.5,43.800003 -64.4,77.700003 -112.600001,89.700003 -48.199999,12 -99.7,2 -144.2,-18.2 -44.599999,-20.1 -82.099999,-50.399999 -117.299999,-91.600003 -35.1,-41.2000005 -67.8,-93.3 -64.6,-143.899997 3.2,-50.5 42.4,-99.6 89.5,-135.8 47.1,-36.1 102.099999,-59.5 159.9000002,-62.7 57.6999988,-3.2 118.0999998,13.8 151.4999998,52.4 z"
         inkscape:connector-curvature="0"
         style="fill:url(#linearGradient876);fill-opacity:1" />
    </g>
    <g
       id="g880"
       transform="matrix(0.3182187,0.02277366,-0.01887773,0.26378029,300.15324,291.81407)"
       style="opacity:0.31100003;fill:url(#linearGradient898);fill-opacity:1">
      <path
         id="path878"
         d="m 117.2,-182.9 c 37.9,24.9 74.1,52 103.6,89.9 29.5,37.9 52.3,86.8 40.9,127 -11.5,40.2 -57.2,71.9 -94.5,106 -37.2,34.2 -65.8,70.9 -103,84.4 -37.2,13.6 -82.8,4 -121,-14.7 C -95,191 -125.7,163.3 -163.3,133.8 -201,104.3 -245.5,73 -238.5,41.7 c 7,-31.3 65.4,-62.7 90.3,-106.1 24.9,-43.4 16.3,-98.9 35.4,-132.3 19.1,-33.5 65.9,-44.9 109.2,-39.3 43.2,5.6 82.9,28.3 120.8,53.1 z"
         inkscape:connector-curvature="0"
         style="fill:url(#linearGradient900);fill-opacity:1" />
    </g>
    <g
       id="g856"
       transform="matrix(0.48318014,0,0,0.40730277,375.36909,280.91606)"
       style="opacity:0.31100003;fill:url(#linearGradient996);fill-opacity:1">
      <path
         id="path854"
         d="m 142.62907,-207.09203 c 36.1,23.4 56.5,70.9 51.6,114.200009 -4.9,43.2 -35.1,82.2 -50.7,116.5 -15.5,34.2 -16.4,63.8 -25.9,99.799991 -9.5,36 -27.599999,78.5 -60.599999,103 -33,24.6 -80.8,31.3 -120.7,17 -39.900001,-14.4 -72.000001,-49.8 -101.100001,-86.2 -29.1,-36.4 -55.3,-73.799991 -61,-113.999991 -5.6,-40.2 9.3,-83.4 32.6,-117.8 23.3,-34.400009 54.9,-60.200009 89,-84.500009 34.100002,-24.2 70.700001,-47 114.900001,-58.7 44.1,-11.8 95.799999,-12.6 131.899999,10.7 z"
         inkscape:connector-curvature="0"
         style="fill:url(#linearGradient1000);fill-opacity:1" />
    </g>
    <ellipse
       style="opacity:0.31100003;fill:url(#linearGradient887);fill-opacity:1;stroke:none;stroke-width:0.4160867;stroke-miterlimit:4;stroke-dasharray:none;stroke-opacity:1"
       id="path879"
       cx="98.17366"
       cy="84.615646"
       rx="36.464531"
       ry="45.150791"
       transform="rotate(35.257113)" />
  </g>
</svg>
