<?xml version="1.0" standalone="no"?>
<!DOCTYPE svg PUBLIC "-//W3C//DTD SVG 20010904//EN"
 "http://www.w3.org/TR/2001/REC-SVG-20010904/DTD/svg10.dtd">
<svg version="1.0" xmlns="http://www.w3.org/2000/svg"
 width="700.000000pt" height="700.000000pt" viewBox="0 0 700.000000 700.000000"
 preserveAspectRatio="xMidYMid meet">
<metadata>
Created by potrace 1.11, written by Peter Selinger 2001-2013
</metadata>
<g transform="translate(0.000000,700.000000) scale(0.100000,-0.100000)"
fill="#000000" stroke="none">
<path d="M4735 6808 c-67 -38 -97 -127 -97 -288 0 -49 -4 -82 -13 -94 -14 -18
-17 -18 -97 16 -106 45 -133 54 -188 69 -83 21 -104 24 -200 24 -104 0 -146
-14 -176 -60 -69 -106 107 -315 382 -454 49 -25 61 -35 60 -53 -1 -13 4 -50
11 -83 l14 -59 -53 -52 c-126 -122 -198 -242 -198 -330 0 -42 44 -93 82 -95
43 -3 73 -1 108 5 48 9 206 87 254 125 21 17 41 31 43 31 2 0 -7 -19 -20 -42
-13 -24 -94 -169 -179 -323 -86 -154 -167 -300 -181 -325 -98 -177 -360 -646
-387 -695 -19 -33 -50 -89 -69 -125 l-36 -64 -135 -27 c-74 -16 -146 -30 -160
-32 -14 -3 -59 -12 -100 -20 -41 -8 -86 -17 -100 -20 -14 -3 -117 -24 -230
-46 -113 -23 -218 -45 -235 -47 -16 -3 -93 -19 -170 -34 -77 -16 -151 -31
-165 -34 -14 -2 -61 -12 -105 -21 -44 -9 -91 -19 -105 -22 -14 -2 -59 -11
-100 -20 -41 -8 -85 -17 -97 -19 -12 -2 -102 -20 -200 -40 -98 -20 -187 -38
-198 -40 -11 -2 -42 -8 -70 -14 -27 -6 -61 -12 -75 -15 -14 -3 -81 -16 -150
-30 -69 -14 -135 -27 -146 -29 -12 -3 -66 -18 -121 -34 -292 -87 -511 -224
-641 -398 -41 -54 -83 -118 -87 -134 -1 -3 -11 -26 -22 -51 -52 -114 -77 -245
-77 -399 -1 -204 36 -355 135 -553 38 -76 126 -219 162 -263 192 -237 309
-346 616 -573 25 -19 48 -37 51 -41 8 -10 973 -765 1002 -784 56 -36 119 4
144 92 22 73 24 151 8 265 -42 305 -153 553 -334 746 -14 15 -55 52 -91 82
l-66 56 971 0 c888 -1 1096 3 1211 19 82 11 265 55 349 84 47 16 86 27 86 25
0 -2 -4 -26 -10 -52 -5 -26 -12 -60 -15 -75 -7 -40 -13 -69 -39 -203 -127
-637 -120 -601 -108 -644 23 -73 109 -115 179 -86 28 12 156 137 389 381 39
41 370 384 494 513 131 136 194 283 193 456 0 141 -31 239 -120 379 l-44 68
42 71 c113 191 213 437 242 597 13 71 27 148 31 175 14 88 18 297 18 1066 l0
847 291 147 c531 270 498 250 533 317 25 48 75 242 69 269 -7 30 -43 68 -71
73 -76 16 -271 57 -329 70 -39 8 -82 17 -95 20 -84 16 -116 28 -163 63 -85 65
-140 93 -260 136 -16 6 -12 14 31 58 91 92 128 194 87 239 -64 70 -274 42
-487 -66 -46 -23 -52 -24 -66 -10 -9 8 -17 35 -18 58 -1 24 -2 51 -3 61 -2 27
-56 77 -84 77 -13 0 -48 -13 -78 -29 -38 -20 -60 -26 -74 -20 -11 4 -32 8 -46
8 -23 1 -32 11 -62 75 -77 161 -173 243 -242 204z"/>
</g>
</svg>
