<?xml version="1.0" encoding="UTF-8" standalone="no"?>
<svg
   xmlns:dc="http://purl.org/dc/elements/1.1/"
   xmlns:cc="http://creativecommons.org/ns#"
   xmlns:rdf="http://www.w3.org/1999/02/22-rdf-syntax-ns#"
   xmlns:svg="http://www.w3.org/2000/svg"
   xmlns="http://www.w3.org/2000/svg"
   width="80mm"
   height="80mm"
   viewBox="0 0 80 80"
   version="1.1"
   id="svg8">
  <defs
     id="defs2" />
  <metadata
     id="metadata5">
    <rdf:RDF>
      <cc:Work
         rdf:about="">
        <dc:format>image/svg+xml</dc:format>
        <dc:type
           rdf:resource="http://purl.org/dc/dcmitype/StillImage" />
        <dc:title></dc:title>
      </cc:Work>
    </rdf:RDF>
  </metadata>
  <g
     id="layer1"
     transform="translate(0,-217)">
    <g
       id="g5120"
       transform="translate(-3.4076865,-23.920622)">
      <path
         style="fill:#2f4054;fill-opacity:1;stroke:none;stroke-width:0.15636797"
         pointer-events="none"
         d="m 69.706638,263.12089 v 18.9346 c 0,4.63787 -1.383856,8.92861 -3.82163,12.52664 0.478483,0.60202 0.942894,1.32287 1.346327,2.2517 1.188394,2.69109 0.583249,5.70274 -1.286908,7.72458 l -9.683873,10.0357 c -0.164187,0.2236 -0.40343,0.42375 -0.680201,0.54259 -0.822495,0.36434 -1.76383,-0.0219 -2.101585,-0.82562 -0.164187,-0.36434 -0.17826,-0.74275 -0.08132,-1.0852 l 2.026528,-10.23585 c -2.550361,0.98044 -5.316511,1.52304 -8.210882,1.52304 l -21.761731,-0.0219 c 5.826271,3.97643 5.826271,11.70101 5.810634,11.84174 -0.03753,0.54416 -0.09695,0.94447 -0.261135,1.42764 -0.22517,0.62547 -0.62078,1.3088 -1.548042,1.02578 L 16.20846,308.3863 c -6.071769,-4.33452 -11.2538031,-11.52277 -8.7034413,-18.90489 1.76383,-5.03974 6.7894973,-7.14446 11.6947613,-8.00604 l 27.57862,-5.53856 12.018442,-21.58816 c 1.465168,-2.55036 5.324335,-4.39394 7.896585,-4.21568 2.594146,0.17826 4.46431,0.88504 6.289119,2.46905 l 5.945112,1.26345 c 0.619217,0.0359 1.083628,0.5645 1.0461,1.18214 l -0.666124,2.40807 c -0.22361,0.5426 -0.462852,0.94447 -0.963225,1.28535 z"
         id="path4542" />
      <g
         transform="matrix(0.59099709,0,0,0.59099709,23.691779,123.67021)"
         style="fill:#2eb0ff;fill-opacity:1;stroke:#ffffff;stroke-width:0.67682225;stroke-miterlimit:4;stroke-dasharray:none;stroke-opacity:1"
         id="g4583">
        <ellipse
           id="ellipse4544"
           ry="10.245936"
           rx="10.227866"
           cy="217.91374"
           cx="61.429077"
           pointer-events="none"
           style="fill:#2eb0ff;fill-opacity:1;stroke:#ffffff;stroke-width:0.67682225;stroke-miterlimit:4;stroke-dasharray:none;stroke-opacity:1" />
        <ellipse
           id="ellipse4546"
           ry="8.0601339"
           rx="3.6138377"
           cy="227.17415"
           cx="60.89991"
           pointer-events="none"
           style="fill:#2eb0ff;fill-opacity:1;stroke:#ffffff;stroke-width:0.67682225;stroke-miterlimit:4;stroke-dasharray:none;stroke-opacity:1" />
        <path
           id="path4548"
           d="m 61.082473,218.05661 c 0.592667,0.70908 0.423334,1.99231 -0.465666,3.56923 -0.891646,1.57692 -2.431521,3.31787 -4.280958,4.83923 -3.84175,3.15119 -7.940146,4.50585 -9.162521,3.03212 -0.592667,-0.70908 -0.425979,-1.99496 0.465667,-3.57452 0.891645,-1.57956 2.434166,-3.32052 4.286249,-4.84187 3.84175,-3.1459 7.934854,-4.50057 9.157229,-3.02419 z"
           stroke-miterlimit="10"
           pointer-events="none"
           style="fill:#2eb0ff;fill-opacity:1;stroke:#ffffff;stroke-width:0.67682225;stroke-miterlimit:4;stroke-dasharray:none;stroke-opacity:1" />
        <path
           id="path4550"
           d="m 42.495495,208.86763 c 0.992187,-2.04787 6.14627,-1.59808 11.522604,1.00542 2.59027,1.25677 4.881562,2.85485 6.365874,4.43971 1.486959,1.58485 2.047875,3.02947 1.558396,4.00843 -0.992187,2.04788 -6.148916,1.60073 -11.525249,-1.00277 -2.587625,-1.25677 -4.878917,-2.85485 -6.365875,-4.43971 -1.486959,-1.5875 -2.045229,-3.02947 -1.55575,-4.01108 z"
           stroke-miterlimit="10"
           pointer-events="none"
           style="fill:#2eb0ff;fill-opacity:1;stroke:#ffffff;stroke-width:0.67682225;stroke-miterlimit:4;stroke-dasharray:none;stroke-opacity:1" />
        <path
           id="path4552"
           d="m 62.868411,216.23892 c 1.727729,-1.88119 6.315603,-0.508 10.263193,3.07446 1.90235,1.72773 3.3946,3.7465 4.15131,5.61181 0.75935,1.86532 0.71702,3.42371 -0.11642,4.33388 -1.72243,1.88648 -6.3156,0.51064 -10.26848,-3.07446 -1.899704,-1.73038 -3.394603,-3.75179 -4.151311,-5.6171 -0.754063,-1.86532 -0.71173,-3.42371 0.121708,-4.32859 z"
           stroke-miterlimit="10"
           pointer-events="none"
           style="fill:#2eb0ff;fill-opacity:1;stroke:#ffffff;stroke-width:0.67682225;stroke-miterlimit:4;stroke-dasharray:none;stroke-opacity:1" />
        <path
           id="path4554"
           d="m 79.539814,209.38621 c 0.47625,0.81492 -0.0423,2.14842 -1.43669,3.70946 -1.39436,1.56104 -3.55071,3.21998 -5.99546,4.61169 -5.07206,2.88131 -9.964211,3.8391 -10.935232,2.14577 -0.47625,-0.81492 0.03969,-2.14842 1.434041,-3.70946 1.394355,-1.56104 3.553357,-3.21998 5.998111,-4.61168 5.07206,-2.88132 9.96421,-3.83911 10.93523,-2.14578 z"
           stroke-miterlimit="10"
           pointer-events="none"
           style="fill:#2eb0ff;fill-opacity:1;stroke:#ffffff;stroke-width:0.67682225;stroke-miterlimit:4;stroke-dasharray:none;stroke-opacity:1" />
        <path
           id="path4556"
           d="m 57.653474,202.26363 c 1.875895,-0.40746 4.257145,3.20146 5.323416,8.05921 0.513292,2.33627 0.648229,4.65402 0.373063,6.44525 -0.275167,1.79123 -0.936625,2.90777 -1.838855,3.10356 -1.87325,0.40746 -4.257145,-3.20146 -5.323416,-8.05921 -0.513292,-2.33627 -0.645583,-4.65402 -0.370417,-6.44525 0.272521,-1.79123 0.933979,-2.90777 1.836209,-3.10356 z"
           stroke-miterlimit="10"
           pointer-events="none"
           style="fill:#2eb0ff;fill-opacity:1;stroke:#ffffff;stroke-width:0.67682225;stroke-miterlimit:4;stroke-dasharray:none;stroke-opacity:1" />
        <path
           id="path4558"
           d="m 67.511854,207.19546 c 0.67204,0.34925 0.95779,1.35203 0.79904,2.79136 -0.15875,1.43933 -0.74877,3.19617 -1.643064,4.87891 -0.89429,1.68011 -2.013482,3.15119 -3.116794,4.08782 -1.103313,0.93927 -2.0955,1.26735 -2.76225,0.91281 -0.669396,-0.3519 -0.955146,-1.35731 -0.796396,-2.79929 0.161396,-1.43934 0.754063,-3.19617 1.648354,-4.87892 1.860021,-3.4925 4.484686,-5.72558 5.87111,-4.99269 z"
           stroke-miterlimit="10"
           pointer-events="none"
           style="fill:#2eb0ff;fill-opacity:1;stroke:#ffffff;stroke-width:0.67682225;stroke-miterlimit:4;stroke-dasharray:none;stroke-opacity:1" />
      </g>
    </g>
  </g>
</svg>
